<?xml version="1.0" encoding="utf-8"?>
<!-- Generator: Adobe Illustrator 19.2.1, SVG Export Plug-In . SVG Version: 6.00 Build 0)  -->
<svg version="1.1" id="Layer_1" xmlns="http://www.w3.org/2000/svg" xmlns:xlink="http://www.w3.org/1999/xlink" x="0px" y="0px"
	 viewBox="0 0 1200 1200" style="enable-background:new 0 0 1200 1200;" xml:space="preserve">
<style type="text/css">
	.st0{fill:#FFFFFF;stroke:#69d1ca;stroke-width:5;stroke-miterlimit:10;}
</style>
<path class="st0" d="M713,619.7c3.9,7.4,14.3,12.1,14.3,22.5c0,15-11.5,27-27.3,27c-15,0-27.2-12.3-27.2-27.3
	c0-10.4,10.5-14.7,14.4-22.2c3.3-6.2,1.6-13.2-3.9-18.2h-84.7v82.3c-4,5.5-11.7,7.1-17.9,3.9c-7.4-3.9-12-14.4-22.4-14.4
	c-15,0-27,12.2-27,27.2c0,15.9,12.3,27.3,27.3,27.3c10.4,0,14.5-10.4,22-14.3c6.2-3.2,14-1.7,18,3.8v84.2h84.7
	c5.5-5,7.1-13.5,3.8-19.7c-3.9-7.4-14.3-12.9-14.3-23.3c0-15,11.5-27.4,27.3-27.4c15,0,27.2,12.1,27.2,27.1
	c0,10.4-10.5,16.2-14.4,23.6c-3.3,6.2-1.6,14.6,3.9,19.6h81.8v-84.7c-4-5.5-11.8-7.1-18-3.8c-7.4,3.9-11.9,14.3-22.3,14.3
	c-15,0-27-11.5-27-27.3c0-15,12.2-27.2,27.2-27.2c10.4,0,14.6,10.5,22.1,14.4c6.2,3.3,14,1.6,18-3.9v-81.8h-81.7
	C711.3,606.5,709.7,613.5,713,619.7z"/>
<path class="st0" d="M1042.2,673c-10.4,0-16.4,10.4-23.8,14.3c-6.2,3.3-14.9,1.6-19.9-3.8v-81.9h-81.7c-5.5,5-7.1,12-3.8,18.2
	c3.9,7.4,14.3,12.1,14.3,22.5c0,15-11.5,27-27.3,27c-15,0-27.2-12.3-27.2-27.3c0-10.4,10.5-14.7,14.4-22.2
	c3.3-6.2,1.6-13.2-3.9-18.2h-84.7v81.8c-4,5.5-11.8,7.1-17.9,3.9c-7.4-3.9-12-14.4-22.4-14.4c-15,0-27,12.2-27,27.2
	c0,15.9,12.3,27.3,27.3,27.3c10.4,0,14.5-10.4,22-14.3c6.2-3.3,14-1.6,18,3.8v84.7h200V717c5-5.5,13.7-7.1,19.9-3.9
	c7.4,3.9,13,14.4,23.4,14.4c15,0,27.4-12.2,27.4-27.2C1069.2,684.5,1057.3,673,1042.2,673z"/>
<path class="st0" d="M842.2,472.7c-10.4,0-16.4,10.4-23.8,14.3c-6.2,3.3-14.9,1.6-19.9-3.8v-81.7h-81.8c-5.5-5-7.1-13.5-3.9-19.7
	c3.9-7.4,14.4-12.9,14.4-23.3c0-15-12.2-27.4-27.2-27.4c-15.9,0-27.3,12.1-27.3,27.1c0,10.4,10.4,16.2,14.3,23.6
	c3.3,6.2,1.6,14.6-3.8,19.6h-84.7v81.8c-4,5.5-11.8,7.1-17.9,3.9c-7.4-3.9-12-14.4-22.4-14.4c-15,0-27,12.2-27,27.2
	c0,15.9,12.3,27.3,27.3,27.3c10.4,0,14.5-10.4,22-14.3c6.2-3.3,14-1.6,18,3.8v84.7h84.7c5.5,5,7.1,12,3.9,18.2
	c-3.9,7.4-14.4,12.1-14.4,22.5c0,15,12.2,27,27.2,27c15.9,0,27.3-12.3,27.3-27.3c0-10.4-10.4-14.7-14.3-22.2
	c-3.3-6.2-1.6-13.2,3.8-18.2h81.7v-84.8c5-5.5,13.7-7.1,19.9-3.9c7.4,3.9,13,14.4,23.4,14.4c15,0,27.4-12.2,27.4-27.2
	C869.2,484.2,857.3,472.7,842.2,472.7z"/>
<path class="st0" d="M558.6,872.7c10.4,0,14.6,10.5,22,14.4c6.2,3.3,13.9,1.6,17.9-3.9v-81.8h-81.8c-5.5-5-7.1-13.5-3.9-19.7
	c3.9-7.4,14.4-12.9,14.4-23.3c0-15-12.2-27.4-27.2-27.4c-15.9,0-27.3,12.1-27.3,27.1c0,10.4,10.4,16.2,14.3,23.6
	c3.3,6.2,1.6,14.6-3.8,19.6h-84.7v200h84.7c5.5,5,7.1,12,3.9,18.2c-3.9,7.4-14.4,12.1-14.4,22.5c0,15,12.2,27,27.2,27
	c15.9,0,27.3-12.3,27.3-27.3c0-10.4-10.4-14.7-14.3-22.2c-3.3-6.2-1.6-13.2,3.8-18.2h81.7v-84.7c-4-5.5-11.8-7.1-18-3.8
	c-7.4,3.9-11.9,14.3-22.3,14.3c-15,0-27-11.5-27-27.3C531.2,884.9,543.5,872.7,558.6,872.7z"/>
<path class="st0" d="M716.7,1001.5c-5.5-5-7.1-13.5-3.9-19.7c3.9-7.4,14.4-12.9,14.4-23.3c0-15-12.2-27.4-27.2-27.4
	c-15.9,0-27.3,12.1-27.3,27.1c0,10.4,10.4,16.2,14.3,23.6c3.3,6.2,1.6,14.6-3.8,19.6h-84.7v82.3c-4,5.5-11.8,7.1-17.9,3.9
	c-7.4-3.9-12-14.4-22.4-14.4c-15,0-27,12.2-27,27.2c0,15.9,12.3,27.3,27.3,27.3c10.4,0,14.5-10.4,22-14.3c6.2-3.3,14-1.6,18,3.8
	v84.2h200v-200H716.7z"/>
<path class="st0" d="M558.6,673.2c10.4,0,14.6,10.5,22,14.4c6.2,3.2,13.9,1.6,17.9-3.9v-82.3h-81.8c-5.5-5-7.1-13.5-3.9-19.7
	c3.9-7.4,14.4-12.9,14.4-23.3c0-15-12.2-27.4-27.2-27.4c-15.9,0-27.3,12.1-27.3,27.1c0,10.4,10.4,16.2,14.3,23.6
	c3.3,6.2,1.6,14.6-3.8,19.6h-84.7v81.8c-4,5.5-11.7,7.1-17.9,3.9c-7.4-3.9-12-14.4-22.4-14.4c-15,0-27,12.2-27,27.2
	c0,15.9,12.3,27.3,27.3,27.3c10.4,0,14.5-10.4,22-14.3c6.2-3.2,14-1.7,18,3.8v84.7h84.7c5.5-5,7.1-13.5,3.8-19.7
	c-3.9-7.4-14.3-12.9-14.3-23.3c0-15,11.5-27.4,27.3-27.4c15,0,27.2,12.1,27.2,27.1c0,10.4-10.5,16.2-14.4,23.6
	c-3.3,6.2-1.6,14.6,3.9,19.6h81.8v-84.2c-4-5.5-11.8-7.1-17.9-3.8c-7.4,3.9-11.9,14.3-22.3,14.3c-15,0-27-11.5-27-27.3
	C531.2,685.4,543.5,673.2,558.6,673.2z"/>
<path class="st0" d="M242.2,673c-10.4,0-16.4,10.4-23.8,14.3c-6.2,3.3-14.9,1.6-19.9-3.8v-81.9h-81.8c-5.5-5-7.1-13.5-3.9-19.7
	c3.9-7.4,14.4-12.9,14.4-23.3c0-15-12.2-27.4-27.2-27.4c-15.9,0-27.3,12.1-27.3,27.1c0,10.4,10.4,16.2,14.3,23.6
	c3.3,6.2,1.6,14.6-3.8,19.6H-1.5v200h200V717c5-5.5,13.7-7.1,19.9-3.9c7.4,3.9,13,14.4,23.4,14.4c15,0,27.4-12.2,27.4-27.2
	C269.2,684.5,257.3,673,242.2,673z"/>
<path class="st0" d="M441.7,472.7c-10.4,0-16.2,10.4-23.6,14.3c-6.2,3.3-15.6,1.6-19.6-3.8v-81.7h-200v81.8
	c-4,5.5-11.8,7.1-17.9,3.9c-7.4-3.9-12-14.4-22.4-14.4c-15,0-27,12.2-27,27.2c0,15.9,12.3,27.3,27.3,27.3c10.4,0,14.5-10.4,22-14.3
	c6.2-3.3,14-1.6,18,3.8v84.7h84.7c5.5,5,7.1,12,3.9,18.2c-3.9,7.4-14.4,12.1-14.4,22.5c0,15,12.2,27,27.2,27
	c15.9,0,27.3-12.3,27.3-27.3c0-10.4-10.4-14.7-14.3-22.2c-3.3-6.2-1.6-13.2,3.8-18.2h81.7v-84.8c4-5.5,13.5-7.1,19.6-3.9
	c7.4,3.9,12.8,14.4,23.2,14.4c15,0,27.4-12.2,27.4-27.2C468.8,484.2,456.8,472.7,441.7,472.7z"/>
<path class="st0" d="M441.7,472.7c-10.4,0-16.2,10.4-23.6,14.3c-6.2,3.3-15.6,1.6-19.6-3.8v-81.7h-200v81.8
	c-4,5.5-11.8,7.1-17.9,3.9c-7.4-3.9-12-14.4-22.4-14.4c-15,0-27,12.2-27,27.2c0,15.9,12.3,27.3,27.3,27.3c10.4,0,14.5-10.4,22-14.3
	c6.2-3.3,14-1.6,18,3.8v84.7h84.7c5.5,5,7.1,12,3.9,18.2c-3.9,7.4-14.4,12.1-14.4,22.5c0,15,12.2,27,27.2,27
	c15.9,0,27.3-12.3,27.3-27.3c0-10.4-10.4-14.7-14.3-22.2c-3.3-6.2-1.6-13.2,3.8-18.2h81.7v-84.8c4-5.5,13.5-7.1,19.6-3.9
	c7.4,3.9,12.8,14.4,23.2,14.4c15,0,27.4-12.2,27.4-27.2C468.8,484.2,456.8,472.7,441.7,472.7z"/>
<path class="st0" d="M716.7,801.5c-5.5-5-7.1-13.5-3.9-19.7c3.9-7.4,14.4-12.9,14.4-23.3c0-15-12.2-27.4-27.2-27.4
	c-15.9,0-27.3,12.1-27.3,27.1c0,10.4,10.4,16.2,14.3,23.6c3.3,6.2,1.6,14.6-3.8,19.6h-84.7v81.8c-4,5.5-11.8,7.1-17.9,3.9
	c-7.4-3.9-12-14.4-22.4-14.4c-15,0-27,12.2-27,27.2c0,15.9,12.3,27.3,27.3,27.3c10.4,0,14.5-10.4,22-14.3c6.2-3.3,14-1.6,18,3.8
	v84.7h84.7c5.5-5,7.1-13.5,3.8-19.7c-3.9-7.4-14.3-12.9-14.3-23.3c0-15,11.5-27.4,27.3-27.4c15,0,27.2,12.1,27.2,27.1
	c0,10.4-10.5,16.2-14.4,23.6c-3.3,6.2-1.6,14.6,3.9,19.6h81.8v-200H716.7z"/>
<path class="st0" d="M513,1019.7c3.9,7.4,14.3,12.1,14.3,22.5c0,15-11.5,27-27.3,27c-15,0-27.2-12.3-27.2-27.3
	c0-10.4,10.5-14.7,14.4-22.2c3.3-6.2,1.6-13.2-3.9-18.2h-84.7v200h200v-84.2c-4-5.5-11.8-7.1-18-3.8c-7.4,3.9-11.9,14.3-22.3,14.3
	c-15,0-27-11.5-27-27.3c0-15,12.2-27.2,27.2-27.2c10.4,0,14.6,10.5,22.1,14.4c6.2,3.3,14,1.6,18-3.9v-82.3h-81.7
	C511.3,1006.5,509.7,1013.5,513,1019.7z"/>
<path class="st0" d="M358.6,672.7c10.4,0,14.6,10.5,22,14.4c6.2,3.2,13.9,1.6,17.9-3.9v-81.8h-81.7c-5.5,5-7.1,12-3.8,18.2
	c3.9,7.4,14.3,12.1,14.3,22.5c0,15-11.5,27-27.3,27c-15,0-27.2-12.3-27.2-27.3c0-10.4,10.5-14.7,14.4-22.2
	c3.3-6.2,1.6-13.2-3.9-18.2h-84.7v81.9c5,5.5,13.7,7.1,19.9,3.8c7.4-3.9,13.1-14.3,23.5-14.3c15,0,27.4,11.5,27.4,27.3
	c0,15-12.1,27.2-27.2,27.2c-10.4,0-16.3-10.5-23.7-14.4c-6.2-3.3-14.9-1.6-19.9,3.9v84.5h200v-84.7c-4-5.4-11.8-7-17.9-3.8
	c-7.4,3.9-11.9,14.3-22.3,14.3c-15,0-27-11.5-27-27.3C331.2,684.9,343.5,672.7,358.6,672.7z"/>
<path class="st0" d="M242.2,673c-10.4,0-16.4,10.4-23.8,14.3c-6.2,3.3-14.9,1.6-19.9-3.8v-81.9h-81.8c-5.5-5-7.1-13.5-3.9-19.7
	c3.9-7.4,14.4-12.9,14.4-23.3c0-15-12.2-27.4-27.2-27.4c-15.9,0-27.3,12.1-27.3,27.1c0,10.4,10.4,16.2,14.3,23.6
	c3.3,6.2,1.6,14.6-3.8,19.6H-1.5v200h200V717c5-5.5,13.7-7.1,19.9-3.9c7.4,3.9,13,14.4,23.4,14.4c15,0,27.4-12.2,27.4-27.2
	C269.2,684.5,257.3,673,242.2,673z"/>
<path class="st0" d="M180.5,513c-7.4,3.9-11.9,14.3-22.3,14.3c-15,0-27-11.5-27-27.3c0-15,12.2-27.2,27.2-27.2
	c10.4,0,14.6,10.5,22.1,14.4c6.2,3.3,14,1.6,18-3.9v-81.8h-200v200h84.7c5.5-5,7.1-13.5,3.8-19.7c-3.9-7.4-14.3-12.9-14.3-23.3
	c0-15,11.5-27.4,27.3-27.4c15,0,27.2,12.1,27.2,27.1c0,10.4-10.5,16.2-14.4,23.6c-3.3,6.2-1.6,14.6,3.9,19.6h81.8v-84.7
	C194.5,511.3,186.7,509.7,180.5,513z"/>
<path class="st0" d="M580.5,513c-7.4,3.9-11.9,14.3-22.3,14.3c-15,0-27-11.5-27-27.3c0-15,12.2-27.2,27.2-27.2
	c10.4,0,14.6,10.5,22.1,14.4c6.2,3.3,14,1.6,18-3.9v-81.8h-81.8c-5.5-5-7.1-13.5-3.9-19.7c3.9-7.4,14.4-12.9,14.4-23.3
	c0-15-12.2-27.4-27.2-27.4c-15.9,0-27.3,12.1-27.3,27.1c0,10.4,10.4,16.2,14.3,23.6c3.3,6.2,1.6,14.6-3.8,19.6h-84.7v81.7
	c4,5.5,13.5,7.1,19.6,3.8c7.4-3.9,12.8-14.3,23.2-14.3c15,0,27.4,11.5,27.4,27.3c0,15-12.1,27.2-27.1,27.2
	c-10.4,0-16.1-10.5-23.6-14.4c-6.2-3.3-15.6-1.6-19.6,3.9v84.8h84.7c5.5-5,7.1-13.5,3.8-19.7c-3.9-7.4-14.3-12.9-14.3-23.3
	c0-15,11.5-27.4,27.3-27.4c15,0,27.2,12.1,27.2,27.1c0,10.4-10.5,16.2-14.4,23.6c-3.3,6.2-1.6,14.6,3.9,19.6h81.8v-84.7
	C594.5,511.3,586.7,509.7,580.5,513z"/>
<path class="st0" d="M716.7,201.5c-5.5-5-7.1-13.5-3.9-19.7c3.9-7.4,14.4-12.9,14.4-23.3c0-15-12.2-27.4-27.2-27.4
	c-15.9,0-27.3,12.1-27.3,27.1c0,10.4,10.4,16.2,14.3,23.6c3.3,6.2,1.6,14.6-3.8,19.6h-84.7v81.4c4,5.5,13.5,7.1,19.6,3.8
	c7.4-3.9,12.8-14.3,23.2-14.3c15,0,27.4,11.5,27.4,27.3c0,15-12.1,27.2-27.1,27.2c-10.4,0-16.1-10.5-23.6-14.4
	c-6.2-3.3-15.6-1.6-19.6,3.9v85h84.7c5.5-5,7.1-13.5,3.8-19.7c-3.9-7.4-14.3-12.9-14.3-23.3c0-15,11.5-27.4,27.3-27.4
	c15,0,27.2,12.1,27.2,27.1c0,10.4-10.5,16.2-14.4,23.6c-3.3,6.2-1.6,14.6,3.9,19.6h81.8v-200H716.7z"/>
<path class="st0" d="M641.7,272.5c-10.4,0-16.2,10.4-23.6,14.3c-6.2,3.3-15.6,1.6-19.6-3.8v-81.4h-81.7c-5.5,5-7.1,12-3.8,18.2
	c3.9,7.4,14.3,12.1,14.3,22.5c0,15-11.5,27-27.3,27c-15,0-27.2-12.3-27.2-27.3c0-10.4,10.5-14.7,14.4-22.2
	c3.3-6.2,1.6-13.2-3.9-18.2h-84.7v200h84.7c5.5-5,7.1-13.5,3.8-19.7c-3.9-7.4-14.3-12.9-14.3-23.3c0-15,11.5-27.4,27.3-27.4
	c15,0,27.2,12.1,27.2,27.1c0,10.4-10.5,16.2-14.4,23.6c-3.3,6.2-1.6,14.6,3.9,19.6h81.8v-85c4-5.5,13.5-7.1,19.6-3.9
	c7.4,3.9,12.8,14.4,23.2,14.4c15,0,27.4-12.2,27.4-27.2C668.8,284,656.8,272.5,641.7,272.5z"/>
<path class="st0" d="M916.8,601.5h81.7v-84.7c-4-5.5-11.8-7.1-18-3.8c-7.4,3.9-11.9,14.3-22.3,14.3c-15,0-27-11.5-27-27.3
	c0-15,12.2-27.2,27.2-27.2c10.4,0,14.6,10.5,22.1,14.4c6.2,3.3,14,1.6,18-3.9v-81.8h-200v81.7c5,5.5,13.7,7.1,19.9,3.8
	c7.4-3.9,13.1-14.3,23.5-14.3c15,0,27.4,11.5,27.4,27.3c0,15-12.1,27.2-27.2,27.2c-10.4,0-16.3-10.5-23.7-14.4
	c-6.2-3.3-14.9-1.6-19.9,3.9v84.8h84.7c5.5,5,7.1,12,3.9,18.2c-3.9,7.4-14.4,12.1-14.4,22.5c0,15,12.2,27,27.2,27
	c15.9,0,27.3-12.3,27.3-27.3c0-10.4-10.4-14.7-14.3-22.2C909.7,613.5,911.3,606.5,916.8,601.5z"/>
<path class="st0" d="M998.5,401.5v81.8c-4,5.5-11.8,7.1-17.9,3.9c-7.4-3.9-12-14.4-22.4-14.4c-15,0-27,12.2-27,27.2
	c0,15.9,12.3,27.3,27.3,27.3c10.4,0,14.5-10.4,22-14.3c6.2-3.3,14-1.6,18,3.8v84.7h84.7c5.5-5,7.1-13.5,3.8-19.7
	c-3.9-7.4-14.3-12.9-14.3-23.3c0-15,11.5-27.4,27.3-27.4c15,0,27.2,12.1,27.2,27.1c0,10.4-10.5,16.2-14.4,23.6
	c-3.3,6.2-1.6,14.6,3.9,19.6h81.8v-200H998.5z"/>
<path class="st0" d="M598.5,1.5v81.4c4,5.5,13.5,7.1,19.6,3.8c7.4-3.9,12.8-14.3,23.2-14.3c15,0,27.4,11.5,27.4,27.3
	c0,15-12.1,27.2-27.1,27.2c-10.4,0-16.1-10.5-23.6-14.4c-6.2-3.3-15.6-1.6-19.6,3.9v85h84.7c5.5-5,7.1-13.5,3.8-19.7
	c-3.9-7.4-14.3-12.9-14.3-23.3c0-15,11.5-27.4,27.3-27.4c15,0,27.2,12.1,27.2,27.1c0,10.4-10.5,16.2-14.4,23.6
	c-3.3,6.2-1.6,14.6,3.9,19.6h81.8V1.5H598.5z"/>
</svg>
